<mxfile host="app.diagrams.net" modified="2024-06-20T01:28:23.462Z" agent="Mozilla/5.0 (Windows NT 10.0; Win64; x64; rv:127.0) Gecko/20100101 Firefox/127.0" etag="nWVv447yZC6d7GwEkNqU" version="24.5.5" type="github">
  <diagram id="C5RBs43oDa-KdzZeNtuy" name="Page-1">
    <mxGraphModel dx="1299" dy="756" grid="1" gridSize="10" guides="1" tooltips="1" connect="1" arrows="1" fold="1" page="1" pageScale="1" pageWidth="827" pageHeight="1169" math="0" shadow="0">
      <root>
        <mxCell id="WIyWlLk6GJQsqaUBKTNV-0" />
        <mxCell id="WIyWlLk6GJQsqaUBKTNV-1" parent="WIyWlLk6GJQsqaUBKTNV-0" />
        <mxCell id="2JC4bPS_00F4hA_RpiD0-102" value="Sensor Detak Jantung" style="whiteSpace=wrap;strokeWidth=2;" vertex="1" parent="WIyWlLk6GJQsqaUBKTNV-1">
          <mxGeometry x="237" y="567.5" width="169" height="34" as="geometry" />
        </mxCell>
        <mxCell id="2JC4bPS_00F4hA_RpiD0-103" value="Mikrokontroler" style="whiteSpace=wrap;strokeWidth=2;" vertex="1" parent="WIyWlLk6GJQsqaUBKTNV-1">
          <mxGeometry x="261" y="657" width="120" height="33" as="geometry" />
        </mxCell>
        <mxCell id="2JC4bPS_00F4hA_RpiD0-104" value="Modul Komunikasi - Wi-Fi/Bluetooth" style="whiteSpace=wrap;strokeWidth=2;" vertex="1" parent="WIyWlLk6GJQsqaUBKTNV-1">
          <mxGeometry x="185" y="741" width="273" height="33" as="geometry" />
        </mxCell>
        <mxCell id="2JC4bPS_00F4hA_RpiD0-105" value="Pengiriman Data ke Server" style="whiteSpace=wrap;strokeWidth=2;" vertex="1" parent="WIyWlLk6GJQsqaUBKTNV-1">
          <mxGeometry x="219" y="824" width="204" height="34" as="geometry" />
        </mxCell>
        <mxCell id="2JC4bPS_00F4hA_RpiD0-106" value="Server Backend" style="whiteSpace=wrap;strokeWidth=2;" vertex="1" parent="WIyWlLk6GJQsqaUBKTNV-1">
          <mxGeometry x="259" y="908" width="125" height="33" as="geometry" />
        </mxCell>
        <mxCell id="2JC4bPS_00F4hA_RpiD0-107" value="Penyimpanan Data" style="whiteSpace=wrap;strokeWidth=2;" vertex="1" parent="WIyWlLk6GJQsqaUBKTNV-1">
          <mxGeometry x="248" y="991" width="147" height="34" as="geometry" />
        </mxCell>
        <mxCell id="2JC4bPS_00F4hA_RpiD0-108" value="Database" style="whiteSpace=wrap;strokeWidth=2;" vertex="1" parent="WIyWlLk6GJQsqaUBKTNV-1">
          <mxGeometry x="281" y="1074" width="81" height="33" as="geometry" />
        </mxCell>
        <mxCell id="2JC4bPS_00F4hA_RpiD0-109" value="Pemrosesan Data dengan Machine Learning" style="whiteSpace=wrap;strokeWidth=2;" vertex="1" parent="WIyWlLk6GJQsqaUBKTNV-1">
          <mxGeometry x="160" y="1158" width="323" height="34" as="geometry" />
        </mxCell>
        <mxCell id="2JC4bPS_00F4hA_RpiD0-110" value="Data Preprocessing" style="whiteSpace=wrap;strokeWidth=2;" vertex="1" parent="WIyWlLk6GJQsqaUBKTNV-1">
          <mxGeometry x="246" y="1241" width="151" height="34" as="geometry" />
        </mxCell>
        <mxCell id="2JC4bPS_00F4hA_RpiD0-111" value="Model Training" style="whiteSpace=wrap;strokeWidth=2;" vertex="1" parent="WIyWlLk6GJQsqaUBKTNV-1">
          <mxGeometry x="262" y="1325" width="119" height="34" as="geometry" />
        </mxCell>
        <mxCell id="2JC4bPS_00F4hA_RpiD0-112" value="Model Prediction" style="whiteSpace=wrap;strokeWidth=2;" vertex="1" parent="WIyWlLk6GJQsqaUBKTNV-1">
          <mxGeometry x="254" y="1409" width="135" height="33" as="geometry" />
        </mxCell>
        <mxCell id="2JC4bPS_00F4hA_RpiD0-113" value="Penyimpanan Hasil Analisis" style="whiteSpace=wrap;strokeWidth=2;" vertex="1" parent="WIyWlLk6GJQsqaUBKTNV-1">
          <mxGeometry x="218" y="1492" width="207" height="34" as="geometry" />
        </mxCell>
        <mxCell id="2JC4bPS_00F4hA_RpiD0-114" value="Database" style="whiteSpace=wrap;strokeWidth=2;" vertex="1" parent="WIyWlLk6GJQsqaUBKTNV-1">
          <mxGeometry x="281" y="1576" width="81" height="33" as="geometry" />
        </mxCell>
        <mxCell id="2JC4bPS_00F4hA_RpiD0-115" value="Penyajian Data di Website" style="whiteSpace=wrap;strokeWidth=2;" vertex="1" parent="WIyWlLk6GJQsqaUBKTNV-1">
          <mxGeometry x="220" y="1659" width="202" height="34" as="geometry" />
        </mxCell>
        <mxCell id="2JC4bPS_00F4hA_RpiD0-116" value="Server Backend" style="whiteSpace=wrap;strokeWidth=2;" vertex="1" parent="WIyWlLk6GJQsqaUBKTNV-1">
          <mxGeometry x="259" y="1743" width="125" height="33" as="geometry" />
        </mxCell>
        <mxCell id="2JC4bPS_00F4hA_RpiD0-117" value="Frontend - Website" style="whiteSpace=wrap;strokeWidth=2;" vertex="1" parent="WIyWlLk6GJQsqaUBKTNV-1">
          <mxGeometry x="245" y="1826" width="152" height="33" as="geometry" />
        </mxCell>
        <mxCell id="2JC4bPS_00F4hA_RpiD0-118" value="" style="curved=1;startArrow=none;endArrow=block;exitX=0.5;exitY=0.99;entryX=0.5;entryY=-0.01;rounded=0;" edge="1" parent="WIyWlLk6GJQsqaUBKTNV-1" target="2JC4bPS_00F4hA_RpiD0-102">
          <mxGeometry relative="1" as="geometry">
            <Array as="points" />
            <mxPoint x="321.0000000000002" y="504" as="sourcePoint" />
          </mxGeometry>
        </mxCell>
        <mxCell id="2JC4bPS_00F4hA_RpiD0-119" value="" style="curved=1;startArrow=none;endArrow=block;exitX=0.5;exitY=0.97;entryX=0.5;entryY=0;rounded=0;" edge="1" parent="WIyWlLk6GJQsqaUBKTNV-1" source="2JC4bPS_00F4hA_RpiD0-102" target="2JC4bPS_00F4hA_RpiD0-103">
          <mxGeometry relative="1" as="geometry">
            <Array as="points" />
          </mxGeometry>
        </mxCell>
        <mxCell id="2JC4bPS_00F4hA_RpiD0-120" value="" style="curved=1;startArrow=none;endArrow=block;exitX=0.5;exitY=1.02;entryX=0.5;entryY=-0.01;rounded=0;" edge="1" parent="WIyWlLk6GJQsqaUBKTNV-1" source="2JC4bPS_00F4hA_RpiD0-103" target="2JC4bPS_00F4hA_RpiD0-104">
          <mxGeometry relative="1" as="geometry">
            <Array as="points" />
          </mxGeometry>
        </mxCell>
        <mxCell id="2JC4bPS_00F4hA_RpiD0-121" value="" style="curved=1;startArrow=none;endArrow=block;exitX=0.5;exitY=1;entryX=0.5;entryY=0;rounded=0;" edge="1" parent="WIyWlLk6GJQsqaUBKTNV-1" source="2JC4bPS_00F4hA_RpiD0-104" target="2JC4bPS_00F4hA_RpiD0-105">
          <mxGeometry relative="1" as="geometry">
            <Array as="points" />
          </mxGeometry>
        </mxCell>
        <mxCell id="2JC4bPS_00F4hA_RpiD0-122" value="" style="curved=1;startArrow=none;endArrow=block;exitX=0.5;exitY=0.99;entryX=0.5;entryY=-0.02;rounded=0;" edge="1" parent="WIyWlLk6GJQsqaUBKTNV-1" source="2JC4bPS_00F4hA_RpiD0-105" target="2JC4bPS_00F4hA_RpiD0-106">
          <mxGeometry relative="1" as="geometry">
            <Array as="points" />
          </mxGeometry>
        </mxCell>
        <mxCell id="2JC4bPS_00F4hA_RpiD0-123" value="" style="curved=1;startArrow=none;endArrow=block;exitX=0.5;exitY=1;entryX=0.5;entryY=0;rounded=0;" edge="1" parent="WIyWlLk6GJQsqaUBKTNV-1" source="2JC4bPS_00F4hA_RpiD0-106" target="2JC4bPS_00F4hA_RpiD0-107">
          <mxGeometry relative="1" as="geometry">
            <Array as="points" />
          </mxGeometry>
        </mxCell>
        <mxCell id="2JC4bPS_00F4hA_RpiD0-124" value="" style="curved=1;startArrow=none;endArrow=block;exitX=0.5;exitY=0.98;entryX=0.5;entryY=0.01;rounded=0;" edge="1" parent="WIyWlLk6GJQsqaUBKTNV-1" source="2JC4bPS_00F4hA_RpiD0-107" target="2JC4bPS_00F4hA_RpiD0-108">
          <mxGeometry relative="1" as="geometry">
            <Array as="points" />
          </mxGeometry>
        </mxCell>
        <mxCell id="2JC4bPS_00F4hA_RpiD0-125" value="" style="curved=1;startArrow=none;endArrow=block;exitX=0.5;exitY=1.03;entryX=0.5;entryY=0;rounded=0;" edge="1" parent="WIyWlLk6GJQsqaUBKTNV-1" source="2JC4bPS_00F4hA_RpiD0-108" target="2JC4bPS_00F4hA_RpiD0-109">
          <mxGeometry relative="1" as="geometry">
            <Array as="points" />
          </mxGeometry>
        </mxCell>
        <mxCell id="2JC4bPS_00F4hA_RpiD0-126" value="" style="curved=1;startArrow=none;endArrow=block;exitX=0.5;exitY=0.98;entryX=0.5;entryY=0.01;rounded=0;" edge="1" parent="WIyWlLk6GJQsqaUBKTNV-1" source="2JC4bPS_00F4hA_RpiD0-109" target="2JC4bPS_00F4hA_RpiD0-110">
          <mxGeometry relative="1" as="geometry">
            <Array as="points" />
          </mxGeometry>
        </mxCell>
        <mxCell id="2JC4bPS_00F4hA_RpiD0-127" value="" style="curved=1;startArrow=none;endArrow=block;exitX=0.5;exitY=1;entryX=0.5;entryY=0;rounded=0;" edge="1" parent="WIyWlLk6GJQsqaUBKTNV-1" source="2JC4bPS_00F4hA_RpiD0-110" target="2JC4bPS_00F4hA_RpiD0-111">
          <mxGeometry relative="1" as="geometry">
            <Array as="points" />
          </mxGeometry>
        </mxCell>
        <mxCell id="2JC4bPS_00F4hA_RpiD0-128" value="" style="curved=1;startArrow=none;endArrow=block;exitX=0.5;exitY=0.99;entryX=0.5;entryY=-0.01;rounded=0;" edge="1" parent="WIyWlLk6GJQsqaUBKTNV-1" source="2JC4bPS_00F4hA_RpiD0-111" target="2JC4bPS_00F4hA_RpiD0-112">
          <mxGeometry relative="1" as="geometry">
            <Array as="points" />
          </mxGeometry>
        </mxCell>
        <mxCell id="2JC4bPS_00F4hA_RpiD0-129" value="" style="curved=1;startArrow=none;endArrow=block;exitX=0.5;exitY=1;entryX=0.5;entryY=0;rounded=0;" edge="1" parent="WIyWlLk6GJQsqaUBKTNV-1" source="2JC4bPS_00F4hA_RpiD0-112" target="2JC4bPS_00F4hA_RpiD0-113">
          <mxGeometry relative="1" as="geometry">
            <Array as="points" />
          </mxGeometry>
        </mxCell>
        <mxCell id="2JC4bPS_00F4hA_RpiD0-130" value="" style="curved=1;startArrow=none;endArrow=block;exitX=0.5;exitY=0.99;entryX=0.5;entryY=-0.01;rounded=0;" edge="1" parent="WIyWlLk6GJQsqaUBKTNV-1" source="2JC4bPS_00F4hA_RpiD0-113" target="2JC4bPS_00F4hA_RpiD0-114">
          <mxGeometry relative="1" as="geometry">
            <Array as="points" />
          </mxGeometry>
        </mxCell>
        <mxCell id="2JC4bPS_00F4hA_RpiD0-131" value="" style="curved=1;startArrow=none;endArrow=block;exitX=0.5;exitY=1;entryX=0.5;entryY=0;rounded=0;" edge="1" parent="WIyWlLk6GJQsqaUBKTNV-1" source="2JC4bPS_00F4hA_RpiD0-114" target="2JC4bPS_00F4hA_RpiD0-115">
          <mxGeometry relative="1" as="geometry">
            <Array as="points" />
          </mxGeometry>
        </mxCell>
        <mxCell id="2JC4bPS_00F4hA_RpiD0-132" value="" style="curved=1;startArrow=none;endArrow=block;exitX=0.5;exitY=0.99;entryX=0.5;entryY=-0.02;rounded=0;" edge="1" parent="WIyWlLk6GJQsqaUBKTNV-1" source="2JC4bPS_00F4hA_RpiD0-115" target="2JC4bPS_00F4hA_RpiD0-116">
          <mxGeometry relative="1" as="geometry">
            <Array as="points" />
          </mxGeometry>
        </mxCell>
        <mxCell id="2JC4bPS_00F4hA_RpiD0-133" value="" style="curved=1;startArrow=none;endArrow=block;exitX=0.5;exitY=1;entryX=0.5;entryY=0;rounded=0;" edge="1" parent="WIyWlLk6GJQsqaUBKTNV-1" source="2JC4bPS_00F4hA_RpiD0-116" target="2JC4bPS_00F4hA_RpiD0-117">
          <mxGeometry relative="1" as="geometry">
            <Array as="points" />
          </mxGeometry>
        </mxCell>
        <mxCell id="2JC4bPS_00F4hA_RpiD0-135" value="Pengumpulan Data Detak Jantung" style="ellipse;whiteSpace=wrap;html=1;" vertex="1" parent="WIyWlLk6GJQsqaUBKTNV-1">
          <mxGeometry x="259" y="450" width="120" height="60" as="geometry" />
        </mxCell>
        <mxCell id="2JC4bPS_00F4hA_RpiD0-138" value="" style="edgeStyle=orthogonalEdgeStyle;rounded=0;orthogonalLoop=1;jettySize=auto;html=1;" edge="1" parent="WIyWlLk6GJQsqaUBKTNV-1" source="2JC4bPS_00F4hA_RpiD0-137" target="2JC4bPS_00F4hA_RpiD0-117">
          <mxGeometry relative="1" as="geometry" />
        </mxCell>
        <mxCell id="2JC4bPS_00F4hA_RpiD0-137" value="Selesai" style="ellipse;whiteSpace=wrap;html=1;" vertex="1" parent="WIyWlLk6GJQsqaUBKTNV-1">
          <mxGeometry x="262" y="1910" width="120" height="50" as="geometry" />
        </mxCell>
      </root>
    </mxGraphModel>
  </diagram>
</mxfile>
